<?xml version="1.0" encoding="UTF-8" standalone="no"?>
<!DOCTYPE svg PUBLIC "-//W3C//DTD SVG 1.1//EN" "http://www.w3.org/Graphics/SVG/1.1/DTD/svg11.dtd">
<svg width="100%" height="100%" viewBox="0 0 303 77" version="1.1" xmlns="http://www.w3.org/2000/svg" xmlns:xlink="http://www.w3.org/1999/xlink" xml:space="preserve" xmlns:serif="http://www.serif.com/" style="fill-rule:evenodd;clip-rule:evenodd;stroke-linejoin:round;stroke-miterlimit:1.41421;"><g id="Layer-1" serif:id="Layer 1"><path d="M228.502,34.727l-55.588,0c-2.357,0 -4.268,-1.911 -4.268,-4.268l0,-13.09c0,-2.357 1.911,-4.268 4.268,-4.268l55.588,0c2.357,0 4.269,1.911 4.269,4.268l0,13.09c0,2.357 -1.912,4.268 -4.269,4.268m-22.736,14.026c0,-2.364 1.92,-4.277 4.284,-4.268l28.178,0.106c2.363,0.01 4.284,-1.904 4.284,-4.267l0,-32.698c0,-2.357 -1.91,-4.268 -4.268,-4.268l-75.072,0c-2.357,0 -4.268,1.911 -4.268,4.268l0,32.575c0,2.357 1.911,4.268 4.268,4.268l29.383,0c1.869,0 3.521,1.216 4.075,3.002l0.791,2.548l5.994,26.535l2.351,-27.801Z" style="fill:#fcaf16;fill-rule:nonzero;"/><path d="M42.213,0c-4.657,0.04 -8.969,1.461 -12.935,4.268c-3.34,2.35 -5.792,5.134 -7.353,8.352c-1.563,3.216 -2.343,7.083 -2.343,11.598l0,40.459l10.068,0l0,-39.576c0,-4.023 0.696,-7.162 2.087,-9.418c1.145,-1.827 2.676,-3.273 4.594,-4.339c1.824,-1.015 3.747,-1.547 5.768,-1.596l11.452,-0.002c1.977,0.042 3.869,0.551 5.676,1.528c1.886,1.02 3.417,2.382 4.593,4.083c0.928,1.361 1.546,2.721 1.856,4.082c0.308,1.361 0.464,3.31 0.464,5.847l0,39.391l10.068,0l0,-39.437c0,-3.867 -0.356,-6.899 -1.067,-9.094c-1.609,-5.011 -4.578,-9.018 -8.908,-12.017c-3.902,-2.712 -8.147,-4.088 -12.739,-4.129l-11.281,0Z" style="fill:#a7a9ac;fill-rule:nonzero;"/><rect x="142.183" y="2.552" width="10.072" height="63.331" style="fill:#a7a9ac;"/><rect x="0" y="1.333" width="10.072" height="63.332" style="fill:#a7a9ac;"/><path d="M302.429,65.883l-43.846,0c-3.405,0 -5.816,-0.712 -7.239,-2.135c-1.422,-1.423 -2.135,-3.85 -2.135,-7.283l0,-44.031c0,-2.321 0.147,-3.974 0.442,-4.964c0.295,-0.99 0.92,-1.903 1.88,-2.738c1.606,-1.453 3.82,-2.18 6.634,-2.18l44.264,0l0,9.743l-43.15,0l0,15.913l41.479,0l0,9.744l-41.479,0l0,18.187l43.15,0l0,9.744Z" style="fill:#a7a9ac;fill-rule:nonzero;"/><path d="M82.37,64.677l0,-9.745l34.835,0c5.028,0 8.993,-4.047 8.993,-9.077c0,-5.025 -4.158,-9.082 -9.186,-9.082l-16.771,-0.083c-9.768,0 -17.687,-7.917 -17.687,-17.685c0,-9.766 7.919,-17.683 17.687,-17.683l31.064,0.023l0,9.743l-30.99,-0.015c-4.411,0 -8.061,3.558 -8.061,7.967c0,4.41 3.48,7.963 7.891,7.963l17.253,0.003c10.389,0 18.811,8.422 18.811,18.811c0,10.392 -8.422,18.816 -18.811,18.816l-35.028,0.044Z" style="fill:#a7a9ac;fill-rule:nonzero;"/></g></svg>